<svg width="21" height="11" viewBox="0 0 21 11" fill="none" xmlns="http://www.w3.org/2000/svg">
<path d="M10.9154 6.4547C14.7938 6.4547 18.2436 4.29168 20.4444 0.933319C20.6045 1.09661 20.7614 1.26407 20.9153 1.4355C19.4488 3.65583 17.4616 5.37479 15.1698 6.33808C15.1734 6.33642 15.1767 6.33496 15.1803 6.3335L16.3348 9.81146C16.1367 9.89645 15.9367 9.97705 15.7349 10.0529L14.5778 6.56744C13.5148 6.94526 12.3927 7.16292 11.2319 7.19646V10.9298C11.1266 10.9323 11.0211 10.9333 10.9153 10.9333C10.8095 10.9333 10.704 10.9323 10.5986 10.9298V7.19646C9.43788 7.16293 8.31598 6.94527 7.25292 6.56744L6.09569 10.0531C5.89407 9.97705 5.69404 9.89645 5.49595 9.81147L6.65038 6.33372C5.66156 5.91694 4.72942 5.35939 3.87133 4.68141L1.78748 7.5216C1.61449 7.37747 1.44397 7.22938 1.27609 7.07733L3.35184 4.24818C2.43653 3.44378 1.61644 2.49691 0.915283 1.43572C1.06937 1.2643 1.22646 1.09684 1.38655 0.933333C3.58707 4.2917 7.03701 6.45471 10.9151 6.45471L10.9154 6.4547Z" fill="black"/>
<path d="M20.0436 7.52165C20.2166 7.37752 20.3871 7.22922 20.5548 7.07738L18.479 4.24823C18.309 4.39757 18.1359 4.54191 17.9595 4.68146L20.0436 7.52165Z" fill="black"/>
</svg>
